<?xml version="1.0" encoding="utf-8"?>
<!-- Generator: Adobe Illustrator 18.0.0, SVG Export Plug-In . SVG Version: 6.00 Build 0)  -->
<!DOCTYPE svg PUBLIC "-//W3C//DTD SVG 1.1//EN" "http://www.w3.org/Graphics/SVG/1.1/DTD/svg11.dtd">
<svg version="1.1" id="Layer_1" xmlns="http://www.w3.org/2000/svg" xmlns:xlink="http://www.w3.org/1999/xlink" x="0px" y="0px"
	 viewBox="159 201 602 1198" enable-background="new 159 201 602 1198" xml:space="preserve">
<g id="Page-1">
	<g id="Frame-_x23_1">
		<path id="Shell" fill="#FFFFFF" stroke="#E4E4E4" stroke-width="2" stroke-miterlimit="10" d="
			M460,202c129.1,0,207,10,235.6,13.2c45.1,5.1,60.2,25.4,60.3,46.9c0,49.4,0.2,987.9,0,1059.6c-0.1,38.2-15,53.4-55.2,61
			c-28.4,5.4-151.9,15.2-240.4,15.2c-88.5,0-212.7-9.8-241.1-15.2c-40.1-7.6-55-22.9-55.2-61c-0.2-71.7,0-1010.2,0-1059.6
			c0-21.5,15.1-41.8,60.3-46.9C253,212,330.9,202,460,202z M190,306v960h540V306H190z M756,358v76h3c0.6,0,1-0.4,1-1v-74
			c0-0.6-0.4-1-1-1H756z M161,434c-0.6,0-1,0.4-1,1v186c0,0.6,0.4,1,1,1h3V434H161z M261,272c3.9,0,7-3.1,7-7s-3.1-7-7-7s-7,3.1-7,7
			S257.1,272,261,272z M461,278c8.3,0,15-6.7,15-15s-6.7-15-15-15s-15,6.7-15,15S452.7,278,461,278z"/>
	</g>
</g>
</svg>
