<?xml version="1.0" encoding="utf-8"?>
<!-- Generator: Adobe Illustrator 18.0.0, SVG Export Plug-In . SVG Version: 6.00 Build 0)  -->
<!DOCTYPE svg PUBLIC "-//W3C//DTD SVG 1.1//EN" "http://www.w3.org/Graphics/SVG/1.1/DTD/svg11.dtd">
<svg version="1.1" id="svg2308" xmlns:svg="http://www.w3.org/2000/svg"
	 xmlns="http://www.w3.org/2000/svg" xmlns:xlink="http://www.w3.org/1999/xlink" x="0px" y="0px" viewBox="0 0 1024 865"
	 enable-background="new 0 0 1024 865" xml:space="preserve">
<g id="layer1" transform="translate(-300.93788,-469.81933)">
	<path id="path2420" fill="#D9D9D9" d="M300.9,1024.7V770.2c0-31.5,25.6-57.2,57.2-57.2h909.6c31.6,0,57.2,25.6,57.2,57.2v507.2
		c0,31.6-25.6,57.2-57.2,57.2H358.1c-31.6,0-57.2-25.6-57.2-57.2V1024.7h33.6v240.9c0,21.1,17.1,38.1,38.1,38.1h880.4
		c21.1,0,38.1-17.1,38.1-38.1V782.1c0-21.1-17.1-38.1-38.1-38.1H372.7c-21.1,0-38.1,17.1-38.1,38.1v242.6H300.9z"/>
	<path id="path2422" fill="#AFAFAF" d="M801.7,496.5c-31.8,0.9-59.4,18.5-80.8,40c-25.6-26.4-61.1-44.6-101.8-36.3
		c-32.4,8.3-57.8,38.5-67.6,68.7C531.2,690.2,643.3,780.6,722.4,853l63.3-58.8c61-64.8,135.8-146.1,99.6-242.6
		c-11.3-26.4-36.3-43.1-61.1-52.9C816.4,497,809,496.3,801.7,496.5z M410.7,832v96.6v99.4c0,0,67.2,0,75.6,0
		c56.9,0,86.2-62.3,86.2-98.9c0-36.3-23.5-97-85.8-97C482.7,832,410.7,832,410.7,832z M1169.8,838.1V1028h46V838.1H1169.8z
		 M457.8,873.1c0,0,18.3,0,22,0c3.7,0,45.8,5.7,45.8,55.5c0,47.4-37,55.5-45.8,55.5c-0.1,0-20.6,0-22,0v-55.5V873.1z M649.2,885.4
		c-40.3,0-72.8,32.8-72.8,73c0,0.4,0,0.7,0,1.1c0.6,39.8,32.9,71.7,72.8,71.7c40.3,0,73-32.5,73-72.8
		C722.2,918.1,689.5,885.4,649.2,885.4z M1100.9,887.1c-39.8,0-72.2,32.6-72.2,72.4c0,39.8,32.3,71.9,72.2,71.9
		c21.2,0,40.4-9.4,53.6-24l-25.5-26.8c-6.1,6.5-14.8,10.4-24.4,10.4c-4,0-7.9-0.6-11.4-1.9l72.8-60.9
		C1154.3,903.9,1129.6,887.1,1100.9,887.1z M806.5,889.1c-22.5,0-32,8.6-32,8.6l-6-6h-37.6v67.8V1077h46.4v-51.4
		c5.7,5.4,18.9,6,25.3,6c57.9,0,70-48.4,70-75C872.6,947.9,862.6,889.1,806.5,889.1z M956.6,889.1c-22.5,0-32,8.6-32,8.6l-6-6H881
		v67.8V1077h46.2v-51.4c5.7,5.4,18.9,6,25.3,6c57.9,0,70-48.4,70-75C1022.5,947.9,1012.8,889.1,956.6,889.1z M1104.6,924.1
		c4,0,7.9,0.6,11.4,1.9l-44.5,37.2c-0.2-1.2-0.4-2.4-0.4-3.7c0-0.6,0-1.3,0-1.9C1071.1,939,1086.1,924.1,1104.6,924.1z M649.2,926.4
		c17.7,0,32,14.3,32,32c0,17.7-14.3,32-32,32c-17.3,0-31.4-13.7-32-30.9c0-0.4,0-0.7,0-1.1C617.2,940.7,631.5,926.4,649.2,926.4z
		 M801.1,929.2c16.8,0,30.5,13.6,30.5,30.5c0,16.8-13.6,30.2-30.5,30.2s-30.2-13.7-30.2-30.5C770.8,942.7,784.2,929.2,801.1,929.2z
		 M951.2,929.2c16.8,0,30.5,13.6,30.5,30.5c0,16.8-13.6,30.2-30.5,30.2c-16.8,0-30.5-13.7-30.5-30.5
		C920.7,942.7,934.4,929.2,951.2,929.2z M586.5,1045.5v189.2h45.4c0,0,0-72.2,0-79.3c0-11.8,11.1-18.8,21.2-18.8
		c15.1,0,19,11.1,19,18.1c0,7.1,0,79.9,0,79.9h43.2c0,0,0-94.2,0-100.2c0-25.6-34.1-38.2-49.3-38.2c-19.5,0-21.7,3-34.1,11.4v-62.2
		H586.5z M1126,1061.5c-17.9,0-33.3,13.9-33.3,32.6c0,18.9,15.3,32.6,33.3,32.6c17.8,0,32.8-13.7,32.8-32.6
		C1158.8,1075.4,1143.7,1061.5,1126,1061.5z M1126,1066.9c14.7,0,26.4,11.8,26.4,27.2c0,15.7-11.6,27.2-26.4,27.2
		c-14.9,0-26.6-11.5-26.6-27.2C1099.4,1078.6,1111.1,1066.9,1126,1066.9z M1113.2,1075.3v37.6h5.8v-16.2h6.5l9.9,16.2h6.3
		l-10.6-16.4c5.5-0.7,9.7-3.6,9.7-10.4c0-7.4-4.3-10.8-13.2-10.8H1113.2z M1119.1,1080.3h7.8c4,0,8.2,0.7,8.2,5.4c0,5.8-4.5,6-9.3,6
		h-6.7V1080.3z M796.7,1096c-39.8,0-71.9,32.6-71.9,72.4c0,39.8,32.1,71.9,71.9,71.9c21.2,0,40.4-9.4,53.6-24l-25.5-26.8
		c-6.1,6.5-14.8,10.4-24.4,10.4c-4,0-7.9-0.6-11.4-1.9l72.8-60.9C850.2,1112.8,825.4,1096,796.7,1096z M931.8,1098.2
		c-12.1,0-25.7,11.9-25.7,11.9v-10.8h-37.4v135.5h44.5c0,0,0-67.1,0-74.5c0-7.4,1.8-18.1,12.5-18.1c2,0,19,0,19,0v-43.9
		C944.7,1098.2,938.5,1098.2,931.8,1098.2z M951.6,1099.3v38.9h44.7l-63.1,96.6h134.4v-37.4h-57.9l62.7-98.1H951.6z M800.4,1133
		c4,0,7.9,0.6,11.4,1.9l-44.5,37.2c-0.2-1.2-0.4-2.4-0.4-3.7c0-0.6,0-1.3,0-1.9C766.9,1147.9,781.9,1133,800.4,1133z"/>
	<path id="path2450" fill="#D3D3D3" d="M1111.4,524.9c36.2,96.5-38.4,177.9-99.5,242.7l-63.3,58.8
		C869.4,754,757.1,663.6,777.5,542.2c9.8-30.1,35.4-60.3,67.8-68.6c40.7-8.3,76.1,9.8,101.7,36.2c26.4-26.4,61.8-46.7,103.3-37.7
		C1075.2,481.9,1100.1,498.5,1111.4,524.9z"/>
</g>
</svg>
