<?xml version="1.0" encoding="utf-8"?>
<!-- Generator: Adobe Illustrator 18.0.0, SVG Export Plug-In . SVG Version: 6.00 Build 0)  -->
<!DOCTYPE svg PUBLIC "-//W3C//DTD SVG 1.1//EN" "http://www.w3.org/Graphics/SVG/1.1/DTD/svg11.dtd">
<svg version="1.1" id="Layer_2" xmlns="http://www.w3.org/2000/svg" xmlns:xlink="http://www.w3.org/1999/xlink" x="0px" y="0px"
	 viewBox="0 0 1265.1 1668" enable-background="new 0 0 1265.1 1668" xml:space="preserve">
<g>
	<g>
		<path fill="#FFFFFF" d="M110,1666.5c-59.8,0-108.5-48.7-108.5-108.5V110c0-28.5,10.9-55.8,30.7-76.8C51.2,13.1,76.3,1.5,101,1.5
			h1045.1c67,0,117.5,46.6,117.5,108.5v1448c0,59.8-48.7,108.5-108.5,108.5H110z"/>
		<path fill="#E4E4E4" d="M1146.1,3c32.5,0,62.2,11.2,83.6,31.4c20.9,19.8,32.4,46.6,32.4,75.6v1448c0,28.6-11.1,55.5-31.3,75.7
			c-20.2,20.2-47.1,31.3-75.7,31.3H110c-28.6,0-55.5-11.1-75.7-31.3C14.1,1613.4,3,1586.5,3,1558V110c0-28.1,10.8-55,30.3-75.7
			C52,14.4,76.7,3,101,3H1146.1 M1146.1,0H101C49.2,0,0,49.2,0,110v1448c0,60.8,49.2,110,110,110h1045.1c60.8,0,110-49.2,110-110
			V110C1265.1,49.2,1215.8,0,1146.1,0L1146.1,0z"/>
	</g>
	<g>
		<rect x="116" y="144.5" fill="#F2F2F2" width="1033.5" height="1375"/>
		<path fill="#E4E4E4" d="M1148,146v1372H117.5V146H1148 M1151,143h-3H117.5h-3v3v1372v3h3H1148h3v-3V146V143L1151,143z"/>
	</g>
	<circle fill="none" stroke="#E4E4E4" stroke-width="3" stroke-miterlimit="10" cx="632.8" cy="1595.3" r="37.6"/>
	<circle fill="none" stroke="#E4E4E4" stroke-width="3" stroke-miterlimit="10" cx="632.5" cy="75.7" r="14"/>
</g>
</svg>
