<?xml version="1.0" encoding="utf-8"?>
<!-- Generator: Adobe Illustrator 18.0.0, SVG Export Plug-In . SVG Version: 6.00 Build 0)  -->
<!DOCTYPE svg PUBLIC "-//W3C//DTD SVG 1.1//EN" "http://www.w3.org/Graphics/SVG/1.1/DTD/svg11.dtd">
<svg version="1.1" id="Layer_1" xmlns="http://www.w3.org/2000/svg" xmlns:xlink="http://www.w3.org/1999/xlink" x="0px" y="0px"
	 viewBox="0 0 116 124" enable-background="new 0 0 116 124" xml:space="preserve">
<path fill-rule="evenodd" clip-rule="evenodd" fill="#CCCCCC" d="M17.8,50.3c0-17.4,9.6-34.4,28.7-34.4c19.3,0,29.1,16.5,29.1,34.4
	c0,17.7-8.7,34.4-29.1,34.4C26.4,84.7,17.8,67.5,17.8,50.3L17.8,50.3z M0,50.3c0,29.7,16.9,50.5,46.4,50.5
	c29.8,0,46.9-20.8,46.9-50.5C93.3,21.4,76,0,46.4,0C17.1,0,0,21.4,0,50.3L0,50.3z"/>
<path fill-rule="evenodd" clip-rule="evenodd" fill="#CCCCCC" d="M89.1,124v-6.9c3.6-3.4,17.3-15,17.3-22.3c0-3.8-3.3-5.6-6.4-5.6
	c-3.6,0-6.9,1.6-9.6,3.4l-0.7-6.9c3.8-1.8,8-2.9,12.2-2.9c7.6,0,12.4,4,12.4,12.1c0,8.5-8.7,16.5-15.1,22.8H116v6.5H89.1L89.1,124z"
	/>
</svg>
