<?xml version="1.0" encoding="utf-8"?>
<!-- Generator: Adobe Illustrator 18.0.0, SVG Export Plug-In . SVG Version: 6.00 Build 0)  -->
<!DOCTYPE svg PUBLIC "-//W3C//DTD SVG 1.1//EN" "http://www.w3.org/Graphics/SVG/1.1/DTD/svg11.dtd">
<svg version="1.1" id="Layer_1" xmlns="http://www.w3.org/2000/svg" xmlns:xlink="http://www.w3.org/1999/xlink" x="0px" y="0px"
	 viewBox="0 0 346 102" enable-background="new 0 0 346 102" xml:space="preserve">
<path fill-rule="evenodd" clip-rule="evenodd" fill="#CCCCCC" d="M0,0v102h78V0H0z M74.2,57.4l-19.8,1.3l-0.1,18.8l-12-11.8
	l-40,34.2l20.3-39.1L4.1,61.6l21.5-18.3L3.1,2.5l38.3,28.8L75.1,3.1L57,42.7L74.2,57.4z"/>
<path fill="#A3A2A2" d="M127,48.9h-12c0.3-0.6,0.6-1.4,0.6-2.1c0-1.3-1.4-1.5-2.4-1.5c-1.4,0-3.6,0.5-3.6,2.3
	c0,3.6,14.7,5.4,14.7,11.9c0,8.6-11.9,9.5-18.2,9.5c-3.8,0-13.4-0.1-13.4-5.5c0-1.3,0.4-2.5,0.8-3.7h12.1c-0.3,0.7-0.6,1.7-0.6,2.4
	c0,1.5,1.6,1.7,2.8,1.7c1.5,0,3.6-0.6,3.6-2.4c0-3.8-14.2-5.3-14.2-11.8c0-8.9,11-9.4,17.6-9.4c3.7,0,13,0.2,13,5.5
	C127.7,46.8,127.3,47.9,127,48.9z"/>
<path fill="#A3A2A2" d="M150.7,46.2h-3.9l-3.7,12.3c-0.3,0.8-0.6,1.7-0.6,2.5c0,1.4,1.2,1.5,2.3,1.5c0.9,0,1.8-0.1,2.8-0.2l-1.7,5.7
	c-2.2,0.4-4.1,0.6-6.4,0.6c-3.8,0-10.9-0.5-10.9-5.7c0-1.3,0.4-2.2,0.7-3.4l4.1-13.3h-3.3l1.6-5.4h3.6l1.8-6.1l13.5-1.8l-2.3,7.8
	h3.9L150.7,46.2z"/>
<path fill="#A3A2A2" d="M174.6,46.6c0,1-0.7,2.9-1.1,3.9h-6.1l1-3.2c0.5-1.8,2-2.1,3.6-2.1C173,45.3,174.6,45.3,174.6,46.6z
	 M187.9,46.5c0-5.7-10.3-6.3-14.4-6.3c-6.5,0-16,0.9-18.8,7.9c-0.8,2-1.5,4.1-2.2,6.2c-0.6,2-1.9,6.4-1.9,8.4
	c0,5.7,10.3,6.3,14.4,6.3c6.4,0,16.1-1,18.8-7.9c0.4-0.9,0.6-2,0.9-2.9h-13.5c-0.3,1.1-0.6,2.4-1,3.5c-0.8,2-1.6,2.2-3.7,2.2
	c-0.9,0-2.5,0-2.5-1.3c0-0.3,0.1-0.6,0.2-0.9l1.8-5.9h19.5l2.2-7.6C187.8,47.6,187.9,47,187.9,46.5z"/>
<path fill="#A3A2A2" d="M215.6,49.2c-0.9,0-1.8,0-2.7,0c-3.8,0-6.8,1.4-7.9,5.2l-4.2,14h-13.4l8.2-27.6h12.7l-1.5,4.9
	c0.8-1,1.5-2,2.4-2.9c2.3-2.3,5.5-2.5,8.6-2.5L215.6,49.2z"/>
<path fill="#A3A2A2" d="M253.3,46.1l-6.6,22.3h-13.4l5.6-18.9c0.1-0.4,0.2-0.7,0.2-1.1c0-1.3-1.5-1.5-2.5-1.5
	c-1.9,0-3.3,0.8-3.8,2.6l-5.6,18.9h-13.4l8.2-27.6h12.9l-0.9,3.1c3.5-2.6,7.1-3.6,11.4-3.6c3,0,8.1,0.7,8.1,4.6
	C253.5,45.2,253.4,45.7,253.3,46.1z"/>
<path fill="#A3A2A2" d="M264.2,68.4h-13l2.4-8h13L264.2,68.4z"/>
<path fill="#A3A2A2" d="M294.1,47.9c0,0.4-0.1,0.8-0.2,1.2l-3.1,10.3c-0.7,2.3-2,3.8-4.6,3.8c-0.8,0-2.2-0.2-2.2-1.3
	c0-0.2,0-0.3,0.1-0.5l4.1-13.6c0.5-1.7,1.7-2.1,3.3-2.1C292.9,45.8,294.1,46.3,294.1,47.9z M311.9,33.9h-13.4l-2.8,9.4
	c-1.9-2.8-5.8-3.1-8.8-3.1c-5.5,0-9.9,1.6-11.9,7c-0.9,2.3-1.7,4.7-2.4,7c-0.7,2.4-2,6.6-2,9c0,4.6,4.2,5.7,8,5.7
	c3.6,0,7.7-0.8,10.5-3.3l-0.8,2.7h13.5L311.9,33.9z"/>
<path fill="#A3A2A2" d="M332.6,46.6c0,1-0.7,2.9-1.1,3.9h-6.1l1-3.2c0.5-1.8,2-2.1,3.6-2.1C331,45.3,332.6,45.3,332.6,46.6z
	 M346,46.5c0-5.7-10.3-6.3-14.4-6.3c-6.5,0-16,0.9-18.8,7.9c-0.8,2-1.5,4.1-2.2,6.2c-0.6,2-1.9,6.4-1.9,8.4c0,5.7,10.3,6.3,14.4,6.3
	c6.4,0,16.1-1,18.8-7.9c0.4-0.9,0.6-2,0.9-2.9h-13.5c-0.3,1.1-0.6,2.4-1,3.5c-0.8,2-1.6,2.2-3.7,2.2c-0.9,0-2.5,0-2.5-1.3
	c0-0.3,0.1-0.6,0.2-0.9l1.8-5.9h19.5l2.2-7.6C345.9,47.6,346,47,346,46.5z"/>
</svg>
