<?xml version="1.0" encoding="utf-8"?>
<!-- Generator: Adobe Illustrator 18.0.0, SVG Export Plug-In . SVG Version: 6.00 Build 0)  -->
<!DOCTYPE svg PUBLIC "-//W3C//DTD SVG 1.1//EN" "http://www.w3.org/Graphics/SVG/1.1/DTD/svg11.dtd">
<svg version="1.1" id="Layer_1" xmlns="http://www.w3.org/2000/svg" xmlns:xlink="http://www.w3.org/1999/xlink" x="0px" y="0px"
	 viewBox="0 0 613 1081" enable-background="new 0 0 613 1081" xml:space="preserve">
<path fill-rule="evenodd" clip-rule="evenodd" fill="#FFFFFF" stroke="#E4E4E4" stroke-width="3" stroke-miterlimit="10" d="
	M24.4,1.5h564.2c12.6,0,22.9,10.2,22.9,22.9v1032.2c0,12.6-10.2,22.9-22.9,22.9H24.4c-12.6,0-22.9-10.2-22.9-22.9V24.4
	C1.5,11.7,11.7,1.5,24.4,1.5z"/>
<path fill-rule="evenodd" clip-rule="evenodd" fill="#F2F2F2" stroke="#E4E4E4" stroke-width="3" stroke-miterlimit="10" d="
	M44.5,101.5h524v873h-524V101.5z"/>
<path fill-rule="evenodd" clip-rule="evenodd" fill="#E4E4E4" d="M307.5,1023.5v-13l19-2v15H307.5z M290.5,1023.5v-11.3l13-1.4v12.6
	H290.5z M303.5,1027.5v12.2l-13-1.7v-10.5H303.5z M326.5,1027.5v15.3l-19-2.5v-12.7H326.5z"/>
<path fill-rule="evenodd" clip-rule="evenodd" fill="none" stroke="#E4E4E4" stroke-width="3" stroke-miterlimit="10" d="
	M244.9,49.5h125.2c3.5,0,6.4,2.9,6.4,6.5c0,3.6-2.9,6.5-6.4,6.5H244.9c-3.5,0-6.4-2.9-6.4-6.5C238.5,52.4,241.3,49.5,244.9,49.5z"/>
</svg>
