<svg xmlns="http://www.w3.org/2000/svg" viewBox="159 201 602 1198" enable-background="new 159 201 602 1198"><path fill="#fff" stroke="#E4E4E4" stroke-width="2" stroke-miterlimit="10" d="M460 202c129.1 0 207 10 235.6 13.2 45.1 5.1 60.2 25.4 60.3 46.9 0 49.4.2 987.9 0 1059.6-.1 38.2-15 53.4-55.2 61-28.4 5.4-151.9 15.2-240.4 15.2s-212.7-9.8-241.1-15.2c-40.1-7.6-55-22.9-55.2-61-.2-71.7 0-1010.2 0-1059.6 0-21.5 15.1-41.8 60.3-46.9 28.7-3.2 106.6-13.2 235.7-13.2zm-270 104v960h540v-960h-540zm566 52v76h3c.6 0 1-.4 1-1v-74c0-.6-.4-1-1-1h-3zm-595 76c-.6 0-1 .4-1 1v186c0 .6.4 1 1 1h3v-188h-3zm100-162c3.9 0 7-3.1 7-7s-3.1-7-7-7-7 3.1-7 7 3.1 7 7 7zm200 6c8.3 0 15-6.7 15-15s-6.7-15-15-15-15 6.7-15 15 6.7 15 15 15z"/></svg>