<svg baseProfile="tiny" xmlns="http://www.w3.org/2000/svg" width="360" height="120" preserveAspectRatio="xMaxYMax meet" viewBox="0 0 360 120"><path fill-rule="evenodd" fill="#fc0" d="M0 60c0-.577.234-1.096.605-1.481l-.006-.005 55.714-57.857.006.004c.389-.403.931-.661 1.538-.661 1.185 0 2.143.959 2.143 2.143 0 .577-.234 1.097-.605 1.481l.007.005-54.283 56.371 54.283 56.371-.007.004c.371.386.605.905.605 1.482 0 1.185-.958 2.143-2.143 2.143-.607 0-1.149-.255-1.538-.661l-.006.004-55.714-57.857.006-.004c-.371-.385-.605-.904-.605-1.482z"/><path fill-rule="evenodd" fill="#fc0" d="M120 60c0-.577-.234-1.096-.605-1.481l.007-.005-55.715-57.857-.006.004c-.389-.403-.931-.661-1.538-.661-1.184 0-2.143.959-2.143 2.143 0 .577.234 1.097.605 1.481l-.006.005 54.282 56.371-54.282 56.371.006.004c-.371.386-.605.905-.605 1.482 0 1.185.959 2.143 2.143 2.143.607 0 1.149-.255 1.538-.661l.006.004 55.715-57.857-.007-.004c.371-.385.605-.904.605-1.482z"/><path fill-rule="evenodd" fill="#ff003a" d="M120 60c0-.578.234-1.096.605-1.481l-.006-.005 55.714-57.857.006.005c.389-.404.931-.662 1.538-.662 1.185 0 2.143.959 2.143 2.143 0 .577-.234 1.097-.605 1.481l.007.005-54.283 56.371 54.283 56.372-.007.004c.371.385.605.904.605 1.481 0 1.185-.958 2.143-2.143 2.143-.607 0-1.149-.255-1.538-.661l-.006.004-55.714-57.857.006-.004c-.371-.386-.605-.904-.605-1.482z"/><path fill-rule="evenodd" fill="#ff003a" d="M240 60c0-.578-.234-1.096-.605-1.481l.007-.005-55.715-57.857-.006.005c-.389-.404-.931-.662-1.538-.662-1.184 0-2.143.959-2.143 2.143 0 .577.234 1.097.605 1.481l-.006.005 54.282 56.371-54.282 56.372.006.004c-.371.385-.605.904-.605 1.481 0 1.185.959 2.143 2.143 2.143.607 0 1.149-.255 1.538-.661l.006.004 55.715-57.857-.007-.004c.371-.386.605-.904.605-1.482z"/><path fill-rule="evenodd" fill="#4bc5ff" d="M240 60c0-.578.234-1.096.605-1.482l-.006-.004 55.714-57.857.006.005c.389-.405.931-.662 1.538-.662 1.185 0 2.143.958 2.143 2.143 0 .577-.234 1.096-.605 1.482l.007.004-54.283 56.371 54.283 56.372-.007.004c.371.385.605.904.605 1.481 0 1.185-.958 2.143-2.143 2.143-.607 0-1.149-.255-1.538-.661l-.006.004-55.714-57.857.006-.004c-.371-.385-.605-.904-.605-1.482z"/><path fill-rule="evenodd" fill="#4bc5ff" d="M360 60c0-.578-.234-1.096-.605-1.482l.007-.004-55.715-57.857-.006.005c-.389-.405-.931-.662-1.538-.662-1.184 0-2.143.958-2.143 2.143 0 .577.234 1.096.605 1.482l-.006.004 54.282 56.371-54.282 56.372.006.004c-.371.385-.605.904-.605 1.481 0 1.185.959 2.143 2.143 2.143.607 0 1.149-.255 1.538-.661l.006.004 55.715-57.857-.007-.004c.371-.385.605-.904.605-1.482z"/></svg>