<svg xmlns="http://www.w3.org/2000/svg" viewBox="0 0 1024 865" enable-background="new 0 0 1024 865"><g><path fill="#D9D9D9" d="M-.038 554.881v-254.5c0-31.5 25.6-57.2 57.2-57.2h909.6c31.6 0 57.2 25.6 57.2 57.2v507.2c0 31.6-25.6 57.2-57.2 57.2h-909.6c-31.6 0-57.2-25.6-57.2-57.2v-252.7h33.6v240.9c0 21.1 17.1 38.1 38.1 38.1h880.4c21.1 0 38.1-17.1 38.1-38.1v-483.5c0-21.1-17.1-38.1-38.1-38.1h-880.3c-21.1 0-38.1 17.1-38.1 38.1v242.6h-33.7z"/><path fill="#AFAFAF" d="M500.762 26.681c-31.8.9-59.4 18.5-80.8 40-25.6-26.4-61.1-44.6-101.8-36.3-32.4 8.3-57.8 38.5-67.6 68.7-20.3 121.3 91.8 211.7 170.9 284.1l63.3-58.8c61-64.8 135.8-146.1 99.6-242.6-11.3-26.4-36.3-43.1-61.1-52.9-7.8-1.7-15.2-2.4-22.5-2.2zm-391 335.5v196h75.6c56.9 0 86.2-62.3 86.2-98.9 0-36.3-23.5-97-85.8-97-4-.1-76-.1-76-.1zm759.1 6.1v189.9h46v-189.9h-46zm-712 35h22c3.7 0 45.8 5.7 45.8 55.5 0 47.4-37 55.5-45.8 55.5h-22v-111zm191.4 12.3c-40.3 0-72.8 32.8-72.8 73v1.1c.6 39.8 32.9 71.7 72.8 71.7 40.3 0 73-32.5 73-72.8s-32.7-73-73-73zm451.7 1.7c-39.8 0-72.2 32.6-72.2 72.4 0 39.8 32.3 71.9 72.2 71.9 21.2 0 40.4-9.4 53.6-24l-25.5-26.8c-6.1 6.5-14.8 10.4-24.4 10.4-4 0-7.9-.6-11.4-1.9l72.8-60.9c-11.7-24.3-36.4-41.1-65.1-41.1zm-294.4 2c-22.5 0-32 8.6-32 8.6l-6-6h-37.6v185.3h46.4v-51.4c5.7 5.4 18.9 6 25.3 6 57.9 0 70-48.4 70-75 0-8.7-10-67.5-66.1-67.5zm150.1 0c-22.5 0-32 8.6-32 8.6l-6-6h-37.6v185.3h46.2v-51.4c5.7 5.4 18.9 6 25.3 6 57.9 0 70-48.4 70-75 0-8.7-9.7-67.5-65.9-67.5zm148 35c4 0 7.9.6 11.4 1.9l-44.5 37.2c-.2-1.2-.4-2.4-.4-3.7v-1.9c0-18.6 15-33.5 33.5-33.5zm-455.4 2.3c17.7 0 32 14.3 32 32s-14.3 32-32 32c-17.3 0-31.4-13.7-32-30.9v-1.1c0-17.7 14.3-32 32-32zm151.9 2.8c16.8 0 30.5 13.6 30.5 30.5 0 16.8-13.6 30.2-30.5 30.2s-30.2-13.7-30.2-30.5c-.1-16.7 13.3-30.2 30.2-30.2zm150.1 0c16.8 0 30.5 13.6 30.5 30.5 0 16.8-13.6 30.2-30.5 30.2-16.8 0-30.5-13.7-30.5-30.5 0-16.7 13.7-30.2 30.5-30.2zm-364.7 116.3v189.2h45.4v-79.3c0-11.8 11.1-18.8 21.2-18.8 15.1 0 19 11.1 19 18.1v79.9h43.2v-100.2c0-25.6-34.1-38.2-49.3-38.2-19.5 0-21.7 3-34.1 11.4v-62.2h-45.4zm539.5 16c-17.9 0-33.3 13.9-33.3 32.6 0 18.9 15.3 32.6 33.3 32.6 17.8 0 32.8-13.7 32.8-32.6 0-18.7-15.1-32.6-32.8-32.6zm0 5.4c14.7 0 26.4 11.8 26.4 27.2 0 15.7-11.6 27.2-26.4 27.2-14.9 0-26.6-11.5-26.6-27.2 0-15.5 11.7-27.2 26.6-27.2zm-12.8 8.4v37.6h5.8v-16.2h6.5l9.9 16.2h6.3l-10.6-16.4c5.5-.7 9.7-3.6 9.7-10.4 0-7.4-4.3-10.8-13.2-10.8h-14.4zm5.9 5h7.8c4 0 8.2.7 8.2 5.4 0 5.8-4.5 6-9.3 6h-6.7v-11.4zm-322.4 15.7c-39.8 0-71.9 32.6-71.9 72.4 0 39.8 32.1 71.9 71.9 71.9 21.2 0 40.4-9.4 53.6-24l-25.5-26.8c-6.1 6.5-14.8 10.4-24.4 10.4-4 0-7.9-.6-11.4-1.9l72.8-60.9c-11.6-24.3-36.4-41.1-65.1-41.1zm135.1 2.2c-12.1 0-25.7 11.9-25.7 11.9v-10.8h-37.4v135.5h44.5v-74.5c0-7.4 1.8-18.1 12.5-18.1h19v-43.9c0-.1-6.2-.1-12.9-.1zm19.8 1.1v38.9h44.7l-63.1 96.6h134.4v-37.4h-57.9l62.7-98.1h-120.8zm-151.2 33.7c4 0 7.9.6 11.4 1.9l-44.5 37.2c-.2-1.2-.4-2.4-.4-3.7v-1.9c0-18.6 15-33.5 33.5-33.5z"/><path fill="#D3D3D3" d="M810.462 55.081c36.2 96.5-38.4 177.9-99.5 242.7l-63.3 58.8c-79.2-72.4-191.5-162.8-171.1-284.2 9.8-30.1 35.4-60.3 67.8-68.6 40.7-8.3 76.1 9.8 101.7 36.2 26.4-26.4 61.8-46.7 103.3-37.7 24.9 9.8 49.8 26.4 61.1 52.8z"/></g></svg>