<svg xmlns="http://www.w3.org/2000/svg" viewBox="0 0 760.9 1596.9" enable-background="new 0 0 760.9 1596.9"><path fill="#fff" d="M2.6 379.8h6.2v51.3h-6.2zM516.2 1.9h119.6v8.5h-119.6zM2.6 512.4h6.2v51.3h-6.2zM2.6 231.8h6.2v64.1h-6.2z"/><path stroke="#E4E4E4" stroke-width="3" stroke-miterlimit="10" d="M9.8 296.5h-4.3c-2.2 0-4-1.8-4-4v-56.7c0-2.2 1.8-4 4-4h4.3v64.7zM9.8 432.2h-4.3c-2.2 0-4-1.8-4-4v-45.7c0-2.2 1.8-4 4-4h4.3v53.7zM9.8 564.8h-4.3c-2.2 0-4-1.8-4-4v-45.7c0-2.2 1.8-4 4-4h4.3v53.7zM636.2 10.8h-120v-5.3c0-2.2 1.8-4 4-4h112c2.2 0 4 1.8 4 4v5.3z" fill="none"/><path fill="#fff" d="M118.8 1595.4c-59.8 0-108.5-48.7-108.5-108.5v-1368c0-28.5 10.9-55.8 30.7-76.8 19-20.1 44.1-31.7 68.8-31.7h532.1c67 0 117.5 46.6 117.5 108.5v1368c0 59.8-48.7 108.5-108.5 108.5h-532.1z"/><path fill="#E4E4E4" d="M641.9 11.9c32.5 0 62.2 11.2 83.6 31.4 20.9 19.8 32.4 46.6 32.4 75.6v1368c0 28.6-11.1 55.5-31.3 75.7-20.2 20.2-47.1 31.3-75.7 31.3h-532.1c-28.6 0-55.5-11.1-75.7-31.3-20.2-20.2-31.3-47.1-31.3-75.7v-1368c0-28.1 10.8-55 30.3-75.7 18.8-19.9 43.4-31.3 67.7-31.3h532.1m0-3h-532.1c-51.7 0-101 49.2-101 110v1368c0 60.8 49.2 110 110 110h532.1c60.8 0 110-49.2 110-110v-1368c0-60.7-49.2-110-119-110z"/><path fill="#F2F2F2" d="M63.3 233.3h643v1139h-643z"/><path fill="#E4E4E4" d="M704.8 234.8v1136h-640v-1136h640m3-3h-646v1142h646v-1142z"/><circle stroke="#E4E4E4" stroke-width="3" stroke-miterlimit="10" cx="386.4" cy="1482.9" r="59.6" fill="none"/><path stroke="#E4E4E4" stroke-width="3" stroke-miterlimit="10" d="M453.9 147c0 8.3-6.7 15-15 15h-106c-8.3 0-15-6.7-15-15s6.7-15 15-15h106c8.3 0 15 6.7 15 15z" fill="none"/><circle stroke="#E4E4E4" stroke-width="3" stroke-miterlimit="10" cx="385.8" cy="87.2" r="14" fill="none"/></svg>