<svg xmlns="http://www.w3.org/2000/svg" viewBox="0 0 346 102" enable-background="new 0 0 346 102"><path fill-rule="evenodd" clip-rule="evenodd" fill="#ccc" d="M0 0v102h78v-102h-78zm74.2 57.4l-19.8 1.3-.1 18.8-12-11.8-40 34.2 20.3-39.1-18.5.8 21.5-18.3-22.5-40.8 38.3 28.8 33.7-28.2-18.1 39.6 17.2 14.7z"/><path fill="#A3A2A2" d="M127 48.9h-12c.3-.6.6-1.4.6-2.1 0-1.3-1.4-1.5-2.4-1.5-1.4 0-3.6.5-3.6 2.3 0 3.6 14.7 5.4 14.7 11.9 0 8.6-11.9 9.5-18.2 9.5-3.8 0-13.4-.1-13.4-5.5 0-1.3.4-2.5.8-3.7h12.1c-.3.7-.6 1.7-.6 2.4 0 1.5 1.6 1.7 2.8 1.7 1.5 0 3.6-.6 3.6-2.4 0-3.8-14.2-5.3-14.2-11.8 0-8.9 11-9.4 17.6-9.4 3.7 0 13 .2 13 5.5-.1 1-.5 2.1-.8 3.1zM150.7 46.2h-3.9l-3.7 12.3c-.3.8-.6 1.7-.6 2.5 0 1.4 1.2 1.5 2.3 1.5.9 0 1.8-.1 2.8-.2l-1.7 5.7c-2.2.4-4.1.6-6.4.6-3.8 0-10.9-.5-10.9-5.7 0-1.3.4-2.2.7-3.4l4.1-13.3h-3.3l1.6-5.4h3.6l1.8-6.1 13.5-1.8-2.3 7.8h3.9l-1.5 5.5zM174.6 46.6c0 1-.7 2.9-1.1 3.9h-6.1l1-3.2c.5-1.8 2-2.1 3.6-2.1 1 .1 2.6.1 2.6 1.4zm13.3-.1c0-5.7-10.3-6.3-14.4-6.3-6.5 0-16 .9-18.8 7.9-.8 2-1.5 4.1-2.2 6.2-.6 2-1.9 6.4-1.9 8.4 0 5.7 10.3 6.3 14.4 6.3 6.4 0 16.1-1 18.8-7.9.4-.9.6-2 .9-2.9h-13.5c-.3 1.1-.6 2.4-1 3.5-.8 2-1.6 2.2-3.7 2.2-.9 0-2.5 0-2.5-1.3 0-.3.1-.6.2-.9l1.8-5.9h19.5l2.2-7.6c.1-.6.2-1.2.2-1.7zM215.6 49.2h-2.7c-3.8 0-6.8 1.4-7.9 5.2l-4.2 14h-13.4l8.2-27.6h12.7l-1.5 4.9c.8-1 1.5-2 2.4-2.9 2.3-2.3 5.5-2.5 8.6-2.5l-2.2 8.9zM253.3 46.1l-6.6 22.3h-13.4l5.6-18.9c.1-.4.2-.7.2-1.1 0-1.3-1.5-1.5-2.5-1.5-1.9 0-3.3.8-3.8 2.6l-5.6 18.9h-13.4l8.2-27.6h12.9l-.9 3.1c3.5-2.6 7.1-3.6 11.4-3.6 3 0 8.1.7 8.1 4.6 0 .3-.1.8-.2 1.2zM264.2 68.4h-13l2.4-8h13l-2.4 8zM294.1 47.9c0 .4-.1.8-.2 1.2l-3.1 10.3c-.7 2.3-2 3.8-4.6 3.8-.8 0-2.2-.2-2.2-1.3 0-.2 0-.3.1-.5l4.1-13.6c.5-1.7 1.7-2.1 3.3-2.1 1.4.1 2.6.6 2.6 2.2zm17.8-14h-13.4l-2.8 9.4c-1.9-2.8-5.8-3.1-8.8-3.1-5.5 0-9.9 1.6-11.9 7-.9 2.3-1.7 4.7-2.4 7-.7 2.4-2 6.6-2 9 0 4.6 4.2 5.7 8 5.7 3.6 0 7.7-.8 10.5-3.3l-.8 2.7h13.5l10.1-34.4zM332.6 46.6c0 1-.7 2.9-1.1 3.9h-6.1l1-3.2c.5-1.8 2-2.1 3.6-2.1 1 .1 2.6.1 2.6 1.4zm13.4-.1c0-5.7-10.3-6.3-14.4-6.3-6.5 0-16 .9-18.8 7.9-.8 2-1.5 4.1-2.2 6.2-.6 2-1.9 6.4-1.9 8.4 0 5.7 10.3 6.3 14.4 6.3 6.4 0 16.1-1 18.8-7.9.4-.9.6-2 .9-2.9h-13.5c-.3 1.1-.6 2.4-1 3.5-.8 2-1.6 2.2-3.7 2.2-.9 0-2.5 0-2.5-1.3 0-.3.1-.6.2-.9l1.8-5.9h19.5l2.2-7.6c.1-.6.2-1.2.2-1.7z"/></svg>