<svg xmlns="http://www.w3.org/2000/svg" viewBox="0 0 613 1081" enable-background="new 0 0 613 1081"><path fill-rule="evenodd" clip-rule="evenodd" fill="#fff" stroke="#E4E4E4" stroke-width="3" stroke-miterlimit="10" d="M24.4 1.5h564.2c12.6 0 22.9 10.2 22.9 22.9v1032.2c0 12.6-10.2 22.9-22.9 22.9h-564.2c-12.6 0-22.9-10.2-22.9-22.9v-1032.2c0-12.7 10.2-22.9 22.9-22.9z"/><path fill-rule="evenodd" clip-rule="evenodd" fill="#F2F2F2" stroke="#E4E4E4" stroke-width="3" stroke-miterlimit="10" d="M44.5 101.5h524v873h-524v-873z"/><path fill-rule="evenodd" clip-rule="evenodd" fill="#E4E4E4" d="M307.5 1023.5v-13l19-2v15h-19zm-17 0v-11.3l13-1.4v12.6h-13zm13 4v12.2l-13-1.7v-10.5h13zm23 0v15.3l-19-2.5v-12.7h19z"/><path clip-rule="evenodd" stroke="#E4E4E4" stroke-width="3" stroke-miterlimit="10" d="M244.9 49.5h125.2c3.5 0 6.4 2.9 6.4 6.5s-2.9 6.5-6.4 6.5h-125.2c-3.5 0-6.4-2.9-6.4-6.5s2.8-6.5 6.4-6.5z" fill="none"/></svg>