<svg 
 xmlns="http://www.w3.org/2000/svg"
 xmlns:xlink="http://www.w3.org/1999/xlink"
 width="60px" height="120px">
<path fill-rule="evenodd"  fill="rgb(255, 204, 0)"
 d="M0.000,60.000 C0.000,59.423 0.234,58.904 0.605,58.519 C0.605,58.519 0.599,58.514 0.599,58.514 C0.599,58.514 56.313,0.657 56.313,0.657 C56.313,0.657 56.319,0.661 56.319,0.661 C56.708,0.258 57.250,-0.000 57.857,-0.000 C59.042,-0.000 60.000,0.959 60.000,2.143 C60.000,2.720 59.766,3.240 59.395,3.624 C59.395,3.624 59.402,3.629 59.402,3.629 C59.402,3.629 5.119,60.000 5.119,60.000 C5.119,60.000 59.402,116.371 59.402,116.371 C59.402,116.371 59.395,116.375 59.395,116.375 C59.766,116.761 60.000,117.280 60.000,117.857 C60.000,119.042 59.042,120.000 57.857,120.000 C57.250,120.000 56.708,119.745 56.319,119.339 C56.319,119.339 56.313,119.343 56.313,119.343 C56.313,119.343 0.599,61.486 0.599,61.486 C0.599,61.486 0.605,61.482 0.605,61.482 C0.234,61.097 0.000,60.578 0.000,60.000 Z"/>
</svg>