<svg 
 xmlns="http://www.w3.org/2000/svg"
 xmlns:xlink="http://www.w3.org/1999/xlink"
 width="60px" height="120px">
<path fill-rule="evenodd"  fill="rgb(75, 197, 255)"
 d="M60.000,60.000 C60.000,59.422 59.766,58.904 59.395,58.518 C59.395,58.518 59.402,58.514 59.402,58.514 C59.402,58.514 3.687,0.657 3.687,0.657 C3.687,0.657 3.681,0.662 3.681,0.662 C3.292,0.257 2.750,0.000 2.143,0.000 C0.959,0.000 0.000,0.958 0.000,2.143 C0.000,2.720 0.234,3.239 0.605,3.625 C0.605,3.625 0.599,3.629 0.599,3.629 C0.599,3.629 54.881,60.000 54.881,60.000 C54.881,60.000 0.599,116.372 0.599,116.372 C0.599,116.372 0.605,116.376 0.605,116.376 C0.234,116.761 0.000,117.280 0.000,117.857 C0.000,119.042 0.959,120.000 2.143,120.000 C2.750,120.000 3.292,119.745 3.681,119.339 C3.681,119.339 3.687,119.343 3.687,119.343 C3.687,119.343 59.402,61.486 59.402,61.486 C59.402,61.486 59.395,61.482 59.395,61.482 C59.766,61.097 60.000,60.578 60.000,60.000 Z"/>
</svg>